<svg width="700pt" height="700pt" viewBox="0 0 700 700" xmlns="http://www.w3.org/2000/svg" xmlns:xlink="http://www.w3.org/1999/xlink"><defs><symbol id="a" overflow="visible"><path d="M.11 0H.062a.093.093 0 01-.047-.016C.004-.023 0-.039 0-.062c0-.008.004-.02.016-.032.02-.008.035-.015.047-.015h.046v.03C.098-.085.086-.093.08-.093H.062l-.016.016a.014.014 0 00-.016.014c0 .024.004.04.016.047h.031A.058.058 0 01.11-.03z"/></symbol><symbol id="b" overflow="visible"><path d="M.078-.063H.063c-.012 0-.016.008-.016.016V0H.016v-.078h.03v.015-.015l.017-.016h.015z"/></symbol><symbol id="c" overflow="visible"><path d="M.094-.047v.016H.03v.015h.032a.047.047 0 00.03-.015V0H.017C.004-.008 0-.023 0-.047c0-.008.004-.02.016-.031.007-.008.02-.016.03-.016.02 0 .032.008.032.016.008.012.016.023.016.031zm-.032 0v-.015h-.03v.015z"/></symbol><symbol id="d" overflow="visible"><path d="M.047-.031H.03v.015h.031V-.03zm.047-.016V0H.062v-.016C.063-.004.056 0 .048 0H.016A.036.036 0 010-.031C0-.04.004-.047.016-.047h.047v-.015H.015v-.016H.03l.016-.016c.02 0 .031.008.031.016.008.012.016.023.016.031z"/></symbol><symbol id="e" overflow="visible"><path d="M.047-.11v.032h.015v.015H.048v.047h.015V0H.017v-.063H0v-.015h.016V-.11z"/></symbol><symbol id="f" overflow="visible"><path d="M.063-.078v-.047h.03V0h-.03v-.016C.063-.004.054 0 .046 0h-.03C.004-.008 0-.023 0-.047c0-.008.004-.02.016-.031.007-.008.02-.016.03-.016v.016h.017zm-.016.062h.015v-.03a.017.017 0 00-.015-.017L.03-.046v.031h.016z"/></symbol><symbol id="g" overflow="visible"><path d="M.063-.016c.007-.007.015-.02.015-.03H.063v-.017c-.012 0-.016.008-.016.016v.031h.015zM.046-.078l.015-.016c.008 0 .02.008.032.016.008.012.015.023.015.031 0 .024-.007.04-.015.047H.047v-.016V0H.016v-.125h.03z"/></symbol><symbol id="h" overflow="visible"><path d="M0-.078h.031l.016.047.015-.047h.032L.062 0a.017.017 0 01-.015.016A.017.017 0 01.03.03H.016V.016H.03V0z"/></symbol><symbol id="i" overflow="visible"><path d="M.063-.094c-.012 0-.024.008-.032.016v.062h.047c.008-.007.016-.023.016-.046a.017.017 0 00-.016-.016.017.017 0 00-.015-.016zm0-.015c.019 0 .035.007.046.015.008.012.016.024.016.032 0 .023-.008.039-.016.046C.098-.004.082 0 .063 0 .038 0 .022-.004.015-.016.004-.023 0-.039 0-.062c0-.008.004-.02.016-.032.007-.008.023-.015.046-.015z"/></symbol><symbol id="j" overflow="visible"><path d="M.016-.125h.03V0h-.03z"/></symbol><symbol id="k" overflow="visible"><path d="M.016-.125h.03v.078l.017-.031h.046l-.046.031L.108 0H.08L.046-.031V0h-.03z"/></symbol><symbol id="l" overflow="visible"><path d="M.078-.078v.015H.031v.016h.016c.008 0 .015.008.015.016h.016C.078-.02.07-.008.063 0H.015v-.031.015h.03c.009 0 .017-.004.017-.015H0v-.032C0-.07.004-.077.016-.077c.007-.008.02-.016.03-.016v.016h.032z"/></symbol><symbol id="m" overflow="visible"><path d="M.094-.047V0H.062v-.062c-.011 0-.015.007-.015.015V0H.016v-.078h.03l.017-.016c.007 0 .015.008.015.016.008.012.016.023.016.031z"/></symbol><symbol id="n" overflow="visible"><path d="M.016-.11h.046c.008 0 .02.008.032.016.008 0 .015.008.015.016a.046.046 0 01-.015.031C.082-.035.07-.03.062-.03H.048V0H.016zm.03.016v.031h.017c.007 0 .015-.003.015-.015H.063v-.016z"/></symbol><symbol id="o" overflow="visible"><path d="M.047-.063H.03v.047h.031c.008-.007.016-.02.016-.03a.017.017 0 00-.015-.017H.046zm0-.03c.02 0 .031.007.031.015.008.012.016.023.016.031 0 .024-.008.04-.016.047H.016C.004-.008 0-.023 0-.047c0-.008.004-.02.016-.031.007-.008.02-.016.03-.016z"/></symbol><symbol id="p" overflow="visible"><path d="M0-.078h.031l.016.047.031-.047h.016L.062 0h-.03z"/></symbol><symbol id="q" overflow="visible"><path d="M.016-.078h.03V0h-.03zm0-.047h.03v.031h-.03z"/></symbol><symbol id="r" overflow="visible"><path d="M.063-.125v.031H.046v.016h.015v.015H.048V0H.016v-.063H0v-.015h.016V-.11c.007-.008.02-.016.03-.016z"/></symbol><symbol id="s" overflow="visible"><path d="M.094-.063v-.015c.008-.008.02-.016.031-.016.008 0 .016.008.016.016.007.012.015.023.015.031V0H.125v-.047a.017.017 0 00-.016-.015l-.015.015V0H.062v-.062c-.011 0-.015.007-.015.015V0H.016v-.078h.03l.017-.016c.007 0 .015.008.015.016.008 0 .016.008.016.015z"/></symbol><symbol id="t" overflow="visible"><path d="M.094-.047V0H.062v-.062c-.011 0-.015.007-.015.015V0H.016v-.125h.03v.047l.017-.016c.007 0 .015.008.015.016.008.012.016.023.016.031z"/></symbol><symbol id="u" overflow="visible"><path d="M.016-.11h.03l.048.079V-.11h.015V0H.08L.046-.078V0h-.03z"/></symbol><symbol id="v" overflow="visible"><path d="M.016-.031v-.047H.03v.047h.016v.015h.015v-.062h.032V0H.062v-.016C.063-.004.056 0 .048 0H.016v-.031z"/></symbol><symbol id="w" overflow="visible"><path d="M.016-.078h.03V0a.017.017 0 01-.015.016C.031.023.02.03 0 .03V.016A.017.017 0 00.016 0zm0-.047h.03v.031h-.03z"/></symbol><symbol id="x" overflow="visible"><path d="M.078-.078v.015H.063c-.012 0-.024.008-.032.016v.031h.032C.07-.016.077-.02.077-.03V0H.016C.004-.008 0-.023 0-.047c0-.008.004-.02.016-.031.007-.008.023-.016.046-.016v.016h.016z"/></symbol></defs><path d="M295.87.371h108.27c21.332 0 40.738 8.742 54.785 22.79 14.074 14.046 22.789 33.452 22.789 54.815v230.64c0 21.332-8.71 40.738-22.789 54.785-14.047 14.074-33.453 22.79-54.785 22.79H295.87c-21.332 0-40.738-8.712-54.785-22.79-14.047-14.047-22.789-33.453-22.789-54.785V77.976c0-21.363 8.742-40.77 22.789-54.816S274.538.371 295.87.371zM404.14 17.61H295.87c-16.586 0-31.656 6.79-42.602 17.734s-17.734 26.043-17.734 42.633v230.64c0 16.586 6.79 31.656 17.734 42.602s26.012 17.734 42.602 17.734h108.27c16.586 0 31.656-6.789 42.602-17.734s17.734-26.012 17.734-42.602V77.976c0-16.586-6.79-31.688-17.734-42.633S420.73 17.61 404.14 17.61z"/><path d="M358.62 78.781v74.227h-17.242V78.781z"/><path d="M341.44 297.46h17.117v228.16H341.44z" fill-rule="evenodd"/><path d="M349.29 559.63l-42.691-62.754 12.68-11.039 23.594 35.379 12.805-.434 23.66-34.262 14.105 10.016z" fill-rule="evenodd"/><use x="70" y="560.465" xlink:href="#a"/><use x="70.113" y="560.465" xlink:href="#b"/><use x="70.191" y="560.465" xlink:href="#c"/><use x="70.297" y="560.465" xlink:href="#d"/><use x="70.398" y="560.465" xlink:href="#e"/><use x="70.473" y="560.465" xlink:href="#c"/><use x="70.578" y="560.465" xlink:href="#f"/><use x="70.746" y="560.465" xlink:href="#g"/><use x="70.855" y="560.465" xlink:href="#h"/><use x="71.012" y="560.465" xlink:href="#i"/><use x="71.141" y="560.465" xlink:href="#j"/><use x="71.195" y="560.465" xlink:href="#c"/><use x="71.301" y="560.465" xlink:href="#k"/><use x="71.402" y="560.465" xlink:href="#l"/><use x="71.496" y="560.465" xlink:href="#d"/><use x="71.602" y="560.465" xlink:href="#m"/><use x="71.711" y="560.465" xlink:href="#f"/><use x="71.82" y="560.465" xlink:href="#b"/><use x="71.953" y="560.465" xlink:href="#n"/><use x="72.066" y="560.465" xlink:href="#d"/><use x="72.172" y="560.465" xlink:href="#m"/><use x="72.281" y="560.465" xlink:href="#d"/><use x="72.387" y="560.465" xlink:href="#l"/><use x="72.477" y="560.465" xlink:href="#o"/><use x="72.582" y="560.465" xlink:href="#p"/><use x="72.684" y="560.465" xlink:href="#l"/><use x="72.777" y="560.465" xlink:href="#k"/><use x="72.879" y="560.465" xlink:href="#h"/><use x="72.98" y="560.465" xlink:href="#q"/><use x="70" y="560.621" xlink:href="#r"/><use x="70.066" y="560.621" xlink:href="#b"/><use x="70.145" y="560.621" xlink:href="#o"/><use x="70.25" y="560.621" xlink:href="#s"/><use x="70.465" y="560.621" xlink:href="#e"/><use x="70.539" y="560.621" xlink:href="#t"/><use x="70.648" y="560.621" xlink:href="#c"/><use x="70.809" y="560.621" xlink:href="#u"/><use x="70.938" y="560.621" xlink:href="#o"/><use x="71.047" y="560.621" xlink:href="#v"/><use x="71.156" y="560.621" xlink:href="#m"/><use x="71.32" y="560.621" xlink:href="#n"/><use x="71.434" y="560.621" xlink:href="#b"/><use x="71.512" y="560.621" xlink:href="#o"/><use x="71.617" y="560.621" xlink:href="#w"/><use x="71.672" y="560.621" xlink:href="#c"/><use x="71.773" y="560.621" xlink:href="#x"/><use x="71.867" y="560.621" xlink:href="#e"/></svg>